@startuml

hide members
left to right direction
Package Controller{
    class Controller

    interface Command
    class InitialState
    class CalculateState
    class MapLoadedState
    class RequestLoadedState
    class listOfCommand
    class ReverseCommmande
    class AddCommande
    class DeleteRequestState

    interface State
    Controller --> State
    InitialState ..|> State
    CalculatedState ..|> State
    MapLoadedState ..|> State
    RequestLoadedState ..|> State
    AddRequestState1..|> State
    AddRequestState2..|> State
    AddRequestState3..|> State
    AddRequestState4..|> State
    AddRequestState5..|> State
    DeleteRequestState..|> State

    listOfCommand ..|> Command
    ReverseCommmande ..|> Command
    AddCommande ..|> Command
}
Package Util{
    class XMLParser
    class XMLfileOpener
    class ExceptionXML
    class TourSerializer


    XMLParser --> XMLfileOpener

}
Package Algorithm{
    interface TSP
    class TSP1
    class TSP2
    class TemplateTSP
    interface Graph
    class CompleteGraph
    class MapGraph
    class Seqlter
    class MinFirstIter


    TSP2 --|> TSP1
    TemplateTSP -> MapGraph
    Controller -up-> TSP
    TSP1 --|> TemplateTSP
    TemplateTSP ..|> TSP
    CompleteGraph..|> Graph
    MapGraph..|> Graph

}
Package Model{
    class Intersection
    class Map
    class Mission
    class Request
    class Segment

    CompleteGraph --> Mission
    CompleteGraph --> Map

    TourSerializer --> Map
    TourSerializer --> Mission
    TourSerializer --> Segment

    Map --> Intersection
    Map --> Segment
    Controller --> Map

    Controller --> Mission
    Mission --> Intersection
    Mission --> Request

    Request --> Intersection
    Segment --> Intersection

}
Package Test{
    class DijkstraTest
    class TSPTest
    class TSP3
    class XMLparserTest


    TSP3 --|> TSP1
    XMLparserTest --> XMLParser
    TSPTest --> TemplateTSP
    TSPTest --> TSP3
    DijkstraTest --> Graph
}
Package View{
    class Window
    class TextualView
    class GraphicalView
    class ButtonListener
    class MouseListener
    class PopupWindow

    State --> PopupWindow
    Controller --> Window
    Window --> TextualView
    Window --> GraphicalView
    Window --> ButtonListener
    Window --> MouseListener

    TextualView --> Mission

    GraphicalView --> Map
    GraphicalView --> Mission
    GraphicalView --> TSP

    ButtonListener --> Controller

}




@enduml